<?xml version="1.0" encoding="UTF-8"?>
<svg xmlns="http://www.w3.org/2000/svg" xmlns:xlink="http://www.w3.org/1999/xlink" width="1400px" height="1400px" viewBox="0 0 1400 1400" version="1.1">
<g id="surface1">
<path style=" stroke:none;fill-rule:nonzero;fill:rgb(10.196079%,9.803922%,9.803922%);fill-opacity:1;" d="M 136.070312 437.445312 C 129.011719 430.355469 119.214844 425.988281 108.292969 425.988281 C 97.398438 425.988281 87.675781 430.355469 80.703125 437.445312 L 80.523438 437.445312 C 73.484375 444.484375 69.117188 454.308594 69.117188 465.164062 C 69.117188 476.078125 73.484375 485.839844 80.523438 492.8125 L 80.703125 493.003906 C 87.675781 500.03125 97.398438 504.339844 108.292969 504.339844 C 119.214844 504.339844 129.011719 500.03125 136.070312 493.003906 L 136.152344 492.8125 C 143.222656 485.839844 147.535156 476.078125 147.535156 465.164062 C 147.535156 454.308594 143.222656 444.484375 136.152344 437.445312 Z M 108.292969 973.722656 C 119.214844 973.722656 129.011719 969.273438 136.070312 962.316406 L 136.152344 962.109375 C 143.222656 955.164062 147.535156 945.339844 147.535156 934.542969 C 147.535156 923.628906 143.222656 913.851562 136.152344 906.773438 L 136.070312 906.773438 C 129.011719 899.617188 119.214844 895.292969 108.292969 895.292969 C 97.398438 895.292969 87.675781 899.617188 80.703125 906.773438 L 80.523438 906.773438 C 73.484375 913.851562 69.117188 923.628906 69.117188 934.542969 C 69.117188 945.339844 73.484375 955.164062 80.523438 962.109375 L 80.703125 962.316406 C 87.675781 969.273438 97.398438 973.722656 108.292969 973.722656 Z M 321.742188 855.027344 C 331.441406 852.476562 340.226562 846.25 345.59375 836.828125 L 346.3125 835.453125 C 351.085938 826.53125 351.957031 816.21875 349.40625 807.066406 C 346.832031 797.296875 340.539062 788.632812 331.140625 783.234375 L 330.585938 782.867188 C 321.425781 777.832031 311.003906 776.738281 301.417969 779.347656 C 291.675781 781.78125 282.921875 788.269531 277.585938 797.605469 C 272.183594 806.890625 271.0625 817.558594 273.644531 827.375 C 276.3125 837.035156 282.558594 845.761719 291.902344 851.21875 L 291.957031 851.21875 C 301.324219 856.601562 311.910156 857.570312 321.742188 855.027344 Z M 148.476562 659.710938 C 138.191406 649.453125 124 643.023438 108.292969 643.023438 C 92.605469 643.023438 78.453125 649.453125 68.191406 659.710938 C 57.960938 669.953125 51.652344 684.082031 51.652344 699.789062 C 51.652344 715.5 57.960938 729.691406 68.191406 740.050781 C 78.453125 750.246094 92.605469 756.613281 108.292969 756.613281 C 124 756.613281 138.191406 750.246094 148.476562 740.050781 C 158.730469 729.691406 165.039062 715.5 165.039062 699.789062 C 165.039062 684.082031 158.730469 669.953125 148.476562 659.710938 Z M 125.878906 592.9375 C 148.679688 596.695312 169.152344 607.617188 184.804688 623.378906 L 184.921875 623.378906 C 187.410156 625.863281 189.832031 628.597656 192.085938 631.328125 L 231.199219 608.703125 C 225.941406 592.808594 225.695312 576.195312 229.925781 560.613281 C 235.5 539.75 249.027344 521.074219 269.304688 509.371094 L 269.964844 508.953125 C 290.023438 497.605469 312.820312 495.242188 333.394531 500.816406 C 354.238281 506.402344 373.039062 519.992188 384.742188 540.238281 L 384.742188 540.296875 C 396.390625 560.433594 398.746094 583.539062 393.195312 604.339844 C 387.648438 625.195312 374.074219 644.003906 353.8125 655.636719 L 348.472656 658.792969 L 347.929688 658.792969 C 329.191406 667.710938 308.589844 669.109375 289.667969 664.125 C 274.132812 660.011719 259.886719 651.332031 248.722656 639.027344 L 209.664062 661.589844 C 214.15625 673.464844 216.636719 686.265625 216.636719 699.789062 C 216.636719 713.25 214.15625 726.234375 209.664062 738.171875 L 248.722656 760.671875 C 259.886719 748.175781 274.132812 739.691406 289.667969 735.566406 C 310.515625 729.867188 333.621094 732.289062 353.8125 744.058594 L 355.109375 744.664062 L 355.109375 744.726562 C 374.613281 756.550781 387.710938 774.804688 393.195312 795.417969 C 398.746094 816.097656 396.390625 839.214844 384.742188 859.394531 L 384.035156 860.796875 L 383.953125 860.683594 C 372.257812 880.132812 353.8125 893.308594 333.457031 898.882812 C 312.582031 904.390625 289.46875 902.039062 269.304688 890.4375 L 269.304688 890.28125 C 249.027344 878.554688 235.5 859.839844 229.925781 839.015625 C 225.695312 823.5 225.941406 806.890625 231.199219 791.003906 L 192.085938 768.433594 C 189.832031 771.164062 187.410156 773.773438 184.921875 776.257812 L 184.804688 776.378906 C 169.152344 792.085938 148.679688 803 125.878906 806.636719 L 125.878906 851.832031 C 142.125 855.222656 156.675781 863.347656 168.070312 874.75 L 168.132812 874.867188 C 183.40625 890.074219 192.867188 911.257812 192.867188 934.542969 C 192.867188 957.757812 183.40625 978.820312 168.132812 994.101562 L 168.070312 994.339844 C 152.683594 1009.617188 131.582031 1019.078125 108.292969 1019.078125 C 85.125 1019.078125 63.96875 1009.617188 48.617188 994.339844 L 48.554688 994.339844 L 48.554688 994.101562 C 33.265625 978.820312 23.785156 957.757812 23.785156 934.542969 C 23.785156 911.257812 33.265625 890.074219 48.554688 874.867188 L 48.554688 874.75 L 48.617188 874.75 C 60.003906 863.347656 74.582031 855.222656 90.765625 851.832031 L 90.765625 806.636719 C 67.972656 803 47.53125 792.085938 31.90625 776.378906 L 31.742188 776.257812 C 12.230469 756.675781 0.015625 729.691406 0.015625 699.789062 C 0.015625 669.953125 12.230469 642.96875 31.742188 623.378906 L 31.90625 623.378906 C 47.53125 607.617188 67.972656 596.695312 90.765625 592.9375 L 90.765625 547.9375 C 74.582031 544.425781 60.003906 536.300781 48.617188 524.960938 L 48.554688 524.960938 L 48.554688 524.839844 C 33.265625 509.496094 23.785156 488.453125 23.785156 465.164062 C 23.785156 441.996094 33.265625 420.769531 48.554688 405.488281 L 48.617188 405.425781 C 63.96875 390.089844 85.125 380.636719 108.292969 380.636719 C 131.582031 380.636719 152.683594 390.089844 168.070312 405.425781 L 168.070312 405.488281 L 168.132812 405.488281 C 183.40625 420.769531 192.867188 441.996094 192.867188 465.164062 C 192.867188 488.453125 183.40625 509.496094 168.132812 524.839844 L 168.070312 524.960938 C 156.675781 536.300781 142.125 544.425781 125.878906 547.9375 Z M 345.59375 562.921875 L 345.257812 562.429688 C 339.867188 553.339844 331.257812 547.277344 321.742188 544.664062 C 311.910156 542.054688 301.324219 543.152344 291.902344 548.554688 L 291.957031 548.554688 C 282.558594 553.886719 276.269531 562.609375 273.644531 572.386719 C 271.0625 582.085938 272.183594 592.808594 277.585938 602.152344 L 277.773438 602.394531 C 283.183594 611.617188 291.800781 617.800781 301.417969 620.289062 C 311.085938 623.023438 321.855469 621.863281 331.140625 616.460938 L 331.640625 616.222656 C 340.78125 610.765625 346.867188 602.152344 349.40625 592.691406 C 351.996094 582.929688 350.960938 572.261719 345.59375 562.921875 Z M 345.59375 562.921875 "/>
<path style=" stroke:none;fill-rule:nonzero;fill:rgb(10.196079%,9.803922%,9.803922%);fill-opacity:1;" d="M 519.148438 576.140625 L 562.792969 576.140625 L 562.792969 709.367188 L 625.730469 639.753906 L 678.0625 639.753906 L 602.078125 720.40625 L 678.378906 822.644531 L 628.40625 822.644531 L 562.792969 731.320312 L 562.792969 822.644531 L 519.148438 822.644531 Z M 728.765625 731.988281 C 728.765625 754.671875 745.082031 787.65625 784.394531 787.65625 C 808.71875 787.65625 824.726562 774.980469 833.03125 758.367188 C 837.378906 750.304688 839.378906 741.6875 840.050781 732.71875 C 840.351562 724.039062 838.714844 715.019531 835.027344 707.003906 C 827.375 689.726562 810.390625 674.746094 784.070312 674.746094 C 748.777344 674.746094 728.765625 703.363281 728.765625 731.683594 Z M 883.347656 822.644531 L 839.679688 822.644531 L 839.679688 796.332031 C 828.058594 817.613281 803.726562 828.292969 778.066406 828.292969 C 719.425781 828.292969 685.125 782.625 685.125 731.019531 C 685.125 673.410156 726.761719 634.109375 778.066406 634.109375 C 811.378906 634.109375 831.695312 651.765625 839.679688 666.4375 L 839.679688 639.753906 L 883.347656 639.753906 Z M 932.765625 673.410156 L 910.148438 673.410156 L 910.148438 639.753906 L 932.765625 639.753906 L 932.765625 629.449219 C 932.765625 575.105469 974.085938 571.828125 1005.417969 571.464844 L 1005.417969 605.0625 C 994.402344 605.0625 976.433594 605.0625 976.433594 630.769531 L 976.433594 639.753906 L 1005.417969 639.753906 L 1005.417969 673.410156 L 976.433594 673.410156 L 976.433594 822.644531 L 932.765625 822.644531 Z M 1035.097656 576.140625 L 1078.730469 576.140625 L 1078.730469 709.367188 L 1141.683594 639.753906 L 1194.015625 639.753906 L 1118.03125 720.40625 L 1194.316406 822.644531 L 1144.34375 822.644531 L 1078.730469 731.320312 L 1078.730469 822.644531 L 1035.097656 822.644531 Z M 1244.714844 731.988281 C 1244.714844 754.671875 1261.027344 787.65625 1300.347656 787.65625 C 1324.636719 787.65625 1340.644531 774.980469 1348.960938 758.367188 C 1353.324219 750.304688 1355.332031 741.6875 1355.988281 732.71875 C 1356.292969 724.039062 1354.652344 715.019531 1350.957031 707.003906 C 1343.320312 689.726562 1326.335938 674.746094 1300.023438 674.746094 C 1264.722656 674.746094 1244.714844 703.363281 1244.714844 731.683594 Z M 1399.285156 822.644531 L 1355.632812 822.644531 L 1355.632812 796.332031 C 1343.976562 817.613281 1319.667969 828.292969 1294.019531 828.292969 C 1235.378906 828.292969 1201.105469 782.625 1201.105469 731.019531 C 1201.105469 673.410156 1242.726562 634.109375 1294.019531 634.109375 C 1327.3125 634.109375 1347.644531 651.765625 1355.632812 666.4375 L 1355.632812 639.753906 L 1399.285156 639.753906 Z M 1399.285156 822.644531 "/>
</g>
</svg>
